<svg width="162" height="40" viewBox="0 0 162 40" fill="none" xmlns="http://www.w3.org/2000/svg">
<g clip-path="url(#clip0_257106_2200)">
<path d="M6.32658 32.1125L14.5313 9.55313C14.601 9.3604 14.7183 9.1884 14.8723 9.0531C15.0263 8.91781 15.2119 8.82358 15.412 8.77916C15.6121 8.73475 15.8202 8.74159 16.017 8.79904C16.2137 8.85649 16.3928 8.9627 16.5375 9.10781L30.8938 23.4641C31.0385 23.609 31.1443 23.788 31.2014 23.9847C31.2586 24.1813 31.2652 24.3892 31.2206 24.5891C31.1761 24.789 31.0818 24.9744 30.9465 25.1281C30.8113 25.2819 30.6394 25.399 30.4469 25.4688L7.88752 33.6734C7.66966 33.753 7.4336 33.7687 7.20712 33.7186C6.98065 33.6686 6.7732 33.5548 6.60919 33.3908C6.44518 33.2268 6.33145 33.0194 6.28138 32.7929C6.23132 32.5664 6.247 32.3304 6.32658 32.1125Z" stroke="#121214" stroke-width="2" stroke-linecap="round" stroke-linejoin="round"/>
<path d="M21.875 2.5V6.25" stroke="#121214" stroke-width="2" stroke-linecap="round" stroke-linejoin="round"/>
<path d="M34.375 18.125L36.875 20.625" stroke="#121214" stroke-width="2" stroke-linecap="round" stroke-linejoin="round"/>
<path d="M33.75 12.5L37.5 11.25" stroke="#121214" stroke-width="2" stroke-linecap="round" stroke-linejoin="round"/>
<path d="M12.2015 15.9517L24.0484 27.7985" stroke="#121214" stroke-width="2" stroke-linecap="round" stroke-linejoin="round"/>
<path d="M15.7984 30.7985L9.20154 24.2017" stroke="#121214" stroke-width="2" stroke-linecap="round" stroke-linejoin="round"/>
<path d="M26.3156 10.625C26.5016 9.55781 27.2219 7.5 30 7.5C33.75 7.5 33.75 3.75 33.75 3.75" stroke="#121214" stroke-width="2" stroke-linecap="round" stroke-linejoin="round"/>
</g>
<path d="M68.4148 16.7216H65.7557C65.6534 16.1534 65.4631 15.6534 65.1847 15.2216C64.9063 14.7898 64.5653 14.4233 64.1619 14.1222C63.7585 13.821 63.3068 13.5937 62.8068 13.4403C62.3125 13.2869 61.7869 13.2102 61.2301 13.2102C60.2244 13.2102 59.3239 13.4631 58.5284 13.9688C57.7386 14.4744 57.1136 15.2159 56.6534 16.1932C56.1989 17.1705 55.9716 18.3636 55.9716 19.7727C55.9716 21.1932 56.1989 22.392 56.6534 23.3693C57.1136 24.3466 57.7415 25.0852 58.5369 25.5852C59.3324 26.0852 60.2273 26.3352 61.2216 26.3352C61.7727 26.3352 62.2955 26.2614 62.7898 26.1136C63.2898 25.9602 63.7415 25.7358 64.1449 25.4403C64.5483 25.1449 64.8892 24.7841 65.1676 24.358C65.4517 23.9261 65.6477 23.4318 65.7557 22.875L68.4148 22.8835C68.2727 23.7415 67.9972 24.5312 67.5881 25.2528C67.1847 25.9688 66.6648 26.5881 66.0284 27.1108C65.3977 27.6278 64.6761 28.0284 63.8636 28.3125C63.0511 28.5966 62.1648 28.7386 61.2045 28.7386C59.6932 28.7386 58.3466 28.3807 57.1648 27.6648C55.983 26.9432 55.0511 25.9119 54.3693 24.571C53.6932 23.2301 53.3551 21.6307 53.3551 19.7727C53.3551 17.9091 53.696 16.3097 54.3778 14.9744C55.0597 13.6335 55.9915 12.6051 57.1733 11.8892C58.3551 11.1676 59.6989 10.8068 61.2045 10.8068C62.1307 10.8068 62.9943 10.9403 63.7955 11.2074C64.6023 11.4687 65.3267 11.8551 65.9688 12.3665C66.6108 12.8722 67.142 13.4915 67.5625 14.2244C67.983 14.9517 68.267 15.7841 68.4148 16.7216ZM76.8757 28.7642C75.6484 28.7642 74.5774 28.483 73.6626 27.9205C72.7479 27.358 72.0376 26.571 71.532 25.5597C71.0263 24.5483 70.7734 23.3665 70.7734 22.0142C70.7734 20.6562 71.0263 19.4687 71.532 18.4517C72.0376 17.4347 72.7479 16.6449 73.6626 16.0824C74.5774 15.5199 75.6484 15.2386 76.8757 15.2386C78.103 15.2386 79.174 15.5199 80.0888 16.0824C81.0036 16.6449 81.7138 17.4347 82.2195 18.4517C82.7251 19.4687 82.978 20.6562 82.978 22.0142C82.978 23.3665 82.7251 24.5483 82.2195 25.5597C81.7138 26.571 81.0036 27.358 80.0888 27.9205C79.174 28.483 78.103 28.7642 76.8757 28.7642ZM76.8842 26.625C77.6797 26.625 78.3388 26.4148 78.8615 25.9943C79.3842 25.5739 79.7706 25.0142 80.0206 24.3153C80.2763 23.6165 80.4041 22.8466 80.4041 22.0057C80.4041 21.1705 80.2763 20.4034 80.0206 19.7045C79.7706 19 79.3842 18.4347 78.8615 18.0085C78.3388 17.5824 77.6797 17.3693 76.8842 17.3693C76.0831 17.3693 75.4183 17.5824 74.8899 18.0085C74.3672 18.4347 73.978 19 73.7223 19.7045C73.4723 20.4034 73.3473 21.1705 73.3473 22.0057C73.3473 22.8466 73.4723 23.6165 73.7223 24.3153C73.978 25.0142 74.3672 25.5739 74.8899 25.9943C75.4183 26.4148 76.0831 26.625 76.8842 26.625ZM90.723 28.7557C89.6662 28.7557 88.723 28.4858 87.8935 27.946C87.0696 27.4006 86.4219 26.625 85.9503 25.6193C85.4844 24.608 85.2514 23.3949 85.2514 21.9801C85.2514 20.5653 85.4872 19.3551 85.9588 18.3494C86.4361 17.3437 87.0895 16.5739 87.919 16.0398C88.7486 15.5057 89.6889 15.2386 90.7401 15.2386C91.5526 15.2386 92.206 15.375 92.7003 15.6477C93.2003 15.9148 93.5866 16.2273 93.8594 16.5852C94.1378 16.9432 94.3537 17.2585 94.5071 17.5312H94.6605V11.0455H97.2088V28.5H94.7202V26.4631H94.5071C94.3537 26.7415 94.1321 27.0597 93.8423 27.4176C93.5582 27.7756 93.1662 28.0881 92.6662 28.3551C92.1662 28.6222 91.5185 28.7557 90.723 28.7557ZM91.2855 26.5824C92.0185 26.5824 92.6378 26.3892 93.1435 26.0028C93.6548 25.6108 94.0412 25.0682 94.3026 24.375C94.5696 23.6818 94.7031 22.875 94.7031 21.9545C94.7031 21.0455 94.5724 20.25 94.3111 19.5682C94.0497 18.8864 93.6662 18.3551 93.1605 17.9744C92.6548 17.5937 92.0298 17.4034 91.2855 17.4034C90.5185 17.4034 89.8793 17.6023 89.3679 18C88.8565 18.3977 88.4702 18.9403 88.2088 19.6278C87.9531 20.3153 87.8253 21.0909 87.8253 21.9545C87.8253 22.8295 87.956 23.6165 88.2173 24.3153C88.4787 25.0142 88.8651 25.5682 89.3764 25.9773C89.8935 26.3807 90.5298 26.5824 91.2855 26.5824ZM106.488 28.7642C105.198 28.7642 104.087 28.4886 103.156 27.9375C102.229 27.3807 101.513 26.5994 101.008 25.5938C100.508 24.5824 100.258 23.3977 100.258 22.0398C100.258 20.6989 100.508 19.517 101.008 18.4943C101.513 17.4716 102.218 16.6733 103.121 16.0994C104.031 15.5256 105.093 15.2386 106.309 15.2386C107.048 15.2386 107.763 15.3608 108.457 15.6051C109.15 15.8494 109.772 16.233 110.323 16.7557C110.874 17.2784 111.309 17.9574 111.627 18.7926C111.945 19.6222 112.104 20.6307 112.104 21.8182V22.7216H101.698V20.8125H109.607C109.607 20.142 109.471 19.5483 109.198 19.0312C108.925 18.5085 108.542 18.0966 108.048 17.7955C107.559 17.4943 106.985 17.3438 106.326 17.3438C105.61 17.3438 104.985 17.5199 104.451 17.8722C103.923 18.2187 103.513 18.6733 103.224 19.2358C102.94 19.7926 102.798 20.3977 102.798 21.0511V22.5426C102.798 23.4176 102.951 24.1619 103.258 24.7756C103.57 25.3892 104.005 25.858 104.562 26.1818C105.119 26.5 105.769 26.6591 106.513 26.6591C106.996 26.6591 107.437 26.5909 107.835 26.4545C108.232 26.3125 108.576 26.1023 108.866 25.8239C109.156 25.5455 109.377 25.2017 109.531 24.7926L111.942 25.2273C111.749 25.9375 111.403 26.5597 110.903 27.0938C110.408 27.6222 109.786 28.0341 109.036 28.3295C108.292 28.6193 107.442 28.7642 106.488 28.7642ZM115.136 11.0455H118.332L123.889 24.6136H124.094L129.651 11.0455H132.847V28.5H130.341V15.8693H130.179L125.031 28.4744H122.952L117.804 15.8608H117.642V28.5H115.136V11.0455ZM141.985 28.7642C140.758 28.7642 139.687 28.483 138.772 27.9205C137.857 27.358 137.147 26.571 136.641 25.5597C136.136 24.5483 135.883 23.3665 135.883 22.0142C135.883 20.6562 136.136 19.4687 136.641 18.4517C137.147 17.4347 137.857 16.6449 138.772 16.0824C139.687 15.5199 140.758 15.2386 141.985 15.2386C143.212 15.2386 144.283 15.5199 145.198 16.0824C146.113 16.6449 146.823 17.4347 147.329 18.4517C147.835 19.4687 148.087 20.6562 148.087 22.0142C148.087 23.3665 147.835 24.5483 147.329 25.5597C146.823 26.571 146.113 27.358 145.198 27.9205C144.283 28.483 143.212 28.7642 141.985 28.7642ZM141.994 26.625C142.789 26.625 143.448 26.4148 143.971 25.9943C144.494 25.5739 144.88 25.0142 145.13 24.3153C145.386 23.6165 145.513 22.8466 145.513 22.0057C145.513 21.1705 145.386 20.4034 145.13 19.7045C144.88 19 144.494 18.4347 143.971 18.0085C143.448 17.5824 142.789 17.3693 141.994 17.3693C141.192 17.3693 140.528 17.5824 139.999 18.0085C139.477 18.4347 139.087 19 138.832 19.7045C138.582 20.4034 138.457 21.1705 138.457 22.0057C138.457 22.8466 138.582 23.6165 138.832 24.3153C139.087 25.0142 139.477 25.5739 139.999 25.9943C140.528 26.4148 141.192 26.625 141.994 26.625ZM150.932 15.4091H153.48V29.3523C153.48 30.2273 153.321 30.9659 153.003 31.5682C152.69 32.1705 152.224 32.6278 151.605 32.9403C150.991 33.2528 150.233 33.4091 149.33 33.4091C149.239 33.4091 149.153 33.4091 149.074 33.4091C148.989 33.4091 148.901 33.4063 148.81 33.4006V31.2102C148.889 31.2102 148.96 31.2102 149.023 31.2102C149.08 31.2102 149.145 31.2102 149.219 31.2102C149.821 31.2102 150.256 31.0483 150.523 30.7244C150.795 30.4063 150.932 29.9432 150.932 29.3352V15.4091ZM152.193 13.3892C151.75 13.3892 151.369 13.2415 151.051 12.946C150.739 12.6449 150.582 12.2869 150.582 11.8722C150.582 11.4517 150.739 11.0937 151.051 10.7983C151.369 10.4972 151.75 10.3466 152.193 10.3466C152.636 10.3466 153.014 10.4972 153.327 10.7983C153.645 11.0937 153.804 11.4517 153.804 11.8722C153.804 12.2869 153.645 12.6449 153.327 12.946C153.014 13.2415 152.636 13.3892 152.193 13.3892ZM156.908 28.5V15.4091H159.457V28.5H156.908ZM158.195 13.3892C157.752 13.3892 157.371 13.2415 157.053 12.946C156.741 12.6449 156.585 12.2869 156.585 11.8722C156.585 11.4517 156.741 11.0937 157.053 10.7983C157.371 10.4972 157.752 10.3466 158.195 10.3466C158.638 10.3466 159.016 10.4972 159.329 10.7983C159.647 11.0937 159.806 11.4517 159.806 11.8722C159.806 12.2869 159.647 12.6449 159.329 12.946C159.016 13.2415 158.638 13.3892 158.195 13.3892Z" fill="#121214"/>
<defs>
<clipPath id="clip0_257106_2200">
<rect width="40" height="40" fill="white"/>
</clipPath>
</defs>
</svg>
